<mxfile host="app.diagrams.net" modified="2022-02-25T11:16:20.939Z" agent="5.0 (Windows NT 10.0; Win64; x64) AppleWebKit/537.36 (KHTML, like Gecko) Chrome/98.0.4758.102 Safari/537.36" etag="rwqMEKzQH0xEEIA3Wwfi" version="16.5.4" type="github">
  <diagram id="c-laRSlbL96D3hqxzogN" name="Page-1">
    <mxGraphModel dx="1006" dy="1108" grid="1" gridSize="10" guides="1" tooltips="1" connect="1" arrows="1" fold="1" page="1" pageScale="1" pageWidth="1169" pageHeight="827" math="0" shadow="0">
      <root>
        <mxCell id="0" />
        <mxCell id="1" parent="0" />
        <mxCell id="FOPxRZEs2-_YjQtoaDOw-3" value="" style="rounded=0;whiteSpace=wrap;html=1;fillColor=#FF0000;strokeColor=#FF0000;" vertex="1" parent="1">
          <mxGeometry x="320" y="200" width="80" height="200" as="geometry" />
        </mxCell>
        <mxCell id="FOPxRZEs2-_YjQtoaDOw-4" value="" style="endArrow=none;html=2;rounded=0;strokeColor=#FF0000;" edge="1" parent="1">
          <mxGeometry width="50" height="50" relative="1" as="geometry">
            <mxPoint x="360" y="200" as="sourcePoint" />
            <mxPoint x="360" y="120" as="targetPoint" />
          </mxGeometry>
        </mxCell>
      </root>
    </mxGraphModel>
  </diagram>
</mxfile>
